<?xml version="1.0" encoding="utf-8"?>
<!-- Generator: Adobe Illustrator 22.0.0, SVG Export Plug-In . SVG Version: 6.00 Build 0)  -->
<svg version="1.1" id="图层_1" xmlns="http://www.w3.org/2000/svg" xmlns:xlink="http://www.w3.org/1999/xlink" x="0px" y="0px"
	 viewBox="0 0 200 200" style="enable-background:new 0 0 200 200;" xml:space="preserve">
<path d="M144.1,81.4l-47.1,46.1c-3.5,3.5-9.2,3.5-12.7,0l-23.6-23c-3.4-3.4-3.5-8.9-0.2-12.3c0.1-0.1,0.1-0.1,0.2-0.2
	c3.5-3.4,9.2-3.4,12.7,0l17.2,16.7l40.7-39.8c3.5-3.4,9.2-3.4,12.7,0c3.4,3.3,3.5,8.9,0.2,12.3C144.2,81.2,144.1,81.4,144.1,81.4z
	 M186.1,34.4c0-3.9-3.2-6.9-7-7l-7.8-0.1c-0.5,0-16.7-0.5-33.2-7c-10.2-4-20-9-29.1-15.1l0,0l-4.7-3.3c-2.6-1.8-6-1.8-8.4,0
	l-4.7,3.3C91,5.2,79.5,13.3,62,20.2c-16.5,6.5-32.7,7-33.2,7l0,0l-7.8,0.1c-3.9,0-7,3.2-7,7v77.8c0,19.4,11.5,41.3,31.3,59.9
	c18.1,17,39.2,27.5,54.8,27.5s36.6-10.5,54.8-27.5c19.9-18.6,31.3-40.3,31.3-59.9L186.1,34.4L186.1,34.4z"/>
</svg>
