<?xml version="1.0" encoding="UTF-8"?>
<svg width="16px" height="16px" viewBox="0 0 16 16" version="1.1" xmlns="http://www.w3.org/2000/svg" xmlns:xlink="http://www.w3.org/1999/xlink">
    <!-- Generator: Sketch 60 (88103) - https://sketch.com -->
    <title>bianji</title>
    <desc>Created with Sketch.</desc>
    <g id="切图" stroke="none" stroke-width="1" fill="none" fill-rule="evenodd">
        <g id="图标" transform="translate(-197.000000, -205.000000)">
            <g id="bianji" transform="translate(196.000000, 204.000000)">
                <g id="编组" transform="translate(1.345794, 1.345794)" fill="#000000">
                    <path d="M15.2821262,2.86764603 C15.2821262,3.15530958 15.1832418,3.34408879 14.9944626,3.53286799 L14.9944626,3.53286799 L13.7539136,4.77341706 L10.5087091,1.52821262 L11.7492582,0.287663551 L11.7492582,0.287663551 C11.9380374,0.0988843458 12.1358061,0 12.4144801,0 C12.7021437,0 12.8909229,0.0988843458 13.0797021,0.287663551 L13.0797021,0.287663551 L14.9944626,2.20242407 L14.9944626,2.20242407 C15.1922313,2.38221379 15.2821262,2.57998248 15.2821262,2.86764603 Z" id="路径" fill-rule="nonzero"></path>
                    <path d="M9.1692757,2.86764603 L12.4144801,6.11285047 L3.5238785,15.0034521 L3.5238785,15.0034521 C3.3350993,15.1922313 3.13733061,15.2911157 2.85865654,15.2911157 L0.952885514,15.2911157 C0.377558411,15.2911157 1.77635684e-15,14.9045678 1.77635684e-15,14.3382301 L1.77635684e-15,12.4234696 C1.77635684e-15,12.1358061 0.0988843458,11.9470269 0.287663551,11.7582477 L0.287663551,11.7582477 L9.1692757,2.86764603 Z" id="路径" fill-rule="nonzero"></path>
                    <line x1="7.64106308" y1="15.1323014" x2="14.6328855" y2="15.1323014" id="直线" stroke="#000000" stroke-linecap="square"></line>
                </g>
                <rect id="矩形" x="0" y="0" width="18" height="18"></rect>
            </g>
        </g>
    </g>
</svg>