<?xml version="1.0" encoding="UTF-8"?>
<svg width="18px" height="18px" viewBox="0 0 18 18" version="1.1" xmlns="http://www.w3.org/2000/svg" xmlns:xlink="http://www.w3.org/1999/xlink">
    <!-- Generator: Sketch 60 (88103) - https://sketch.com -->
    <title>caidanguanli</title>
    <desc>Created with Sketch.</desc>
    <g id="切图" stroke="none" stroke-width="1" fill="none" fill-rule="evenodd">
        <g id="图标" transform="translate(-28.000000, -493.000000)" fill-rule="nonzero">
            <g id="caidanguanli" transform="translate(28.000000, 493.000000)">
                <path d="M3.42089552,10.6477612 L7.34328358,10.6477612 C8.01492537,10.6477612 8.47164179,11.0955224 8.47164179,11.7761194 L8.47164179,16.7910448 C8.47164179,17.4626866 7.8,17.919403 7.13731343,17.919403 L2.30149254,17.919403 C1.62985075,17.919403 1.2,17.4716418 1.2,16.7910448 L1.2,11.7761194 C1.2,11.1044776 1.64776119,10.6477612 2.32835821,10.6477612 L3.42089552,10.6477612 Z" id="路径" fill="#FFFFFF"></path>
                <path d="M11.8208955,10.6477612 L16.8447761,10.6477612 C17.5164179,10.6477612 17.9731343,11.2119403 17.9731343,11.8835821 L17.9731343,16.6925373 C17.9731343,17.3641791 17.4358209,17.8925373 16.7731343,17.8925373 L11.9462687,17.8925373 C11.2746269,17.8925373 10.7104478,17.4447761 10.7104478,16.7641791 L10.7104478,11.7492537 C10.7104478,11.0776119 11.2746269,10.6477612 11.9462687,10.6477612 L11.8208955,10.6477612 Z" id="路径" fill="#FFFFFF"></path>
                <path d="M11.8208955,1.17313433 L16.8447761,1.17313433 C17.5164179,1.17313433 17.9731343,1.5761194 17.9731343,2.23880597 L17.9731343,7.28955224 C17.9731343,7.96119403 17.5253731,8.41791045 16.8447761,8.41791045 L11.8208955,8.41791045 C11.1492537,8.41791045 10.6925373,7.97014925 10.6925373,7.28955224 L10.6925373,2.27462687 C10.6925373,1.6119403 11.1492537,1.17313433 11.8208955,1.17313433 Z" id="路径" fill="#FFFFFF"></path>
                <path d="M0.429850746,3.80597015 L3.85074627,0.394029851 C4.32537313,-0.0805970149 5.08656716,-0.0805970149 5.56119403,0.394029851 L8.95522388,3.81492537 C9.42985075,4.28955224 9.42985075,5.05074627 8.95522388,5.52537313 L5.54328358,8.92835821 C5.06865672,9.40298507 4.30746269,9.40298507 3.83283582,8.92835821 L0.429850746,5.50746269 C-0.0268656716,5.03283582 -0.0268656716,4.26268657 0.429850746,3.80597015 Z" id="路径" fill="#41C0FF"></path>
            </g>
        </g>
    </g>
</svg>