<?xml version="1.0" encoding="UTF-8"?>
<svg width="16px" height="16px" viewBox="0 0 16 16" version="1.1" xmlns="http://www.w3.org/2000/svg" xmlns:xlink="http://www.w3.org/1999/xlink">
    <!-- Generator: Sketch 60 (88103) - https://sketch.com -->
    <title>chakanxiangqing</title>
    <desc>Created with Sketch.</desc>
    <g id="切图" stroke="none" stroke-width="1" fill="none" fill-rule="evenodd">
        <g id="图标" transform="translate(-254.000000, -173.000000)" fill="#5CA7DB" fill-rule="nonzero">
            <g id="chakanxiangqing" transform="translate(254.000000, 173.000000)">
                <path d="M13.836,12.82 C14,12.412 14.084,11.98 14.084,11.54 C14.084,9.592 12.508,8.016 10.564,8.016 C8.62,8.016 7.044,9.596 7.044,11.54 C7.044,13.484 8.62,15.064 10.564,15.064 C11.416,15.064 12.188,14.748 12.796,14.248 L14.864,16 L16,14.652 L13.836,12.82 L13.836,12.82 Z M10.56,13.304 C9.588,13.324 8.78,12.556 8.76,11.58 C8.74,10.608 9.508,9.796 10.48,9.776 L10.56,9.776 C11.532,9.796 12.304,10.604 12.28,11.58 C12.26,12.524 11.504,13.28 10.56,13.304 Z M6.164,11.536 C6.164,9.1 8.136,7.124 10.568,7.124 C11.196,7.124 11.788,7.26 12.328,7.496 L12.328,1.764 C12.328,0.792 11.54,0 10.568,0 L1.76,0 C0.788,0 0,0.788 0,1.764 L0,13.3 C0,14.272 0.788,15.064 1.76,15.064 L7.948,15.064 C6.828,14.24 6.164,12.932 6.164,11.536 Z M2.34,3.496 L8.96,3.496 C9.28,3.496 9.54,3.728 9.54,4.016 C9.54,4.304 9.28,4.536 8.96,4.536 L2.34,4.536 C2.02,4.536 1.76,4.304 1.76,4.016 C1.76,3.728 2.02,3.496 2.34,3.496 L2.34,3.496 Z M2.34,6.616 L6.636,6.616 C6.956,6.616 7.216,6.848 7.216,7.136 C7.216,7.424 6.956,7.656 6.636,7.656 L2.34,7.656 C2.02,7.656 1.76,7.424 1.76,7.136 C1.76,6.848 2.02,6.616 2.34,6.616 L2.34,6.616 Z M5.476,10.776 L2.34,10.776 C2.02,10.776 1.76,10.544 1.76,10.256 C1.76,9.968 2.02,9.736 2.34,9.736 L5.476,9.736 C5.796,9.736 6.056,9.968 6.056,10.256 C6.056,10.544 5.796,10.776 5.476,10.776 L5.476,10.776 Z" id="形状"></path>
            </g>
        </g>
    </g>
</svg>