<?xml version="1.0" encoding="UTF-8"?>
<svg width="20px" height="15px" viewBox="0 0 20 15" version="1.1" xmlns="http://www.w3.org/2000/svg" xmlns:xlink="http://www.w3.org/1999/xlink">
    <!-- Generator: Sketch 60 (88103) - https://sketch.com -->
    <title>chakan</title>
    <desc>Created with Sketch.</desc>
    <g id="切图" stroke="none" stroke-width="1" fill="none" fill-rule="evenodd">
        <g id="图标" transform="translate(-344.000000, -174.000000)" fill="#FFFFFF" fill-rule="nonzero">
            <g id="chakan" transform="translate(344.000000, 174.000000)">
                <path d="M19.9827992,7.33538808 C19.9827992,7.21542034 19.9625185,7.1150712 19.9567555,7.10312838 C19.9523904,7.04368403 19.9321096,6.9353403 19.9132513,6.87847088 C19.9081995,6.86432096 19.9016518,6.8494844 19.8958888,6.83533448 C19.8857117,6.80271856 19.8748724,6.77083833 19.8625617,6.74548128 C18.0203506,2.71611503 14.0540827,0.00793891392 9.99430761,0.00793891392 C5.93526824,0.00793891392 1.96934363,2.71361366 0.135494943,6.72117875 C0.113399492,6.76468299 0.0978026984,6.80634799 0.0880179256,6.84259337 C0.083677315,6.85453619 0.0786009873,6.86576783 0.0746282352,6.87628832 C0.0383828604,6.982474 0.0376717072,7.05636254 0.0405654477,7.03716085 C0.0235462998,7.11507122 0.00794953029,7.27015625 0.00794953029,7.27015625 C0.00360891967,7.31687303 0.00360891967,7.35419742 0.00868522335,7.40059543 C0.00868522335,7.40059543 0.024257477,7.53611091 0.0318842264,7.56362601 C0.0340422738,7.60202943 0.043459212,7.65784433 0.0546908551,7.70858294 L0.053955162,7.70858294 C0.0637399348,7.75206267 0.0771541651,7.79409552 0.0956201591,7.83539266 C0.105061613,7.86727289 0.116293256,7.89699506 0.126078029,7.91945837 C1.9707905,11.9495113 5.93600393,14.6584231 9.99430761,14.6584231 C14.0548184,14.6584231 18.0210863,11.9517184 19.842281,7.96438497 C19.8705072,7.91219948 19.8886545,7.86293228 19.9009651,7.82016373 C19.9067526,7.80714187 19.9118535,7.79554239 19.9154584,7.78394289 C19.9473631,7.6911469 19.9538618,7.61073517 19.950968,7.61073517 L19.9502814,7.61144634 C19.9632787,7.54699921 19.9827992,7.45062284 19.9827992,7.33538808 Z M18.637797,7.38465529 C18.6370858,7.38757355 18.6356144,7.39117847 18.6341676,7.39409675 C18.6320095,7.40277797 18.6284046,7.4129306 18.6261975,7.42308323 C16.9869163,10.9559763 13.5257783,13.3264918 9.99430759,13.3264918 C6.47154266,13.3264918 3.01653544,10.9625485 1.36094627,7.41729575 C1.35694898,7.40498507 1.35405524,7.39336105 1.34971463,7.38178609 C1.34897894,7.37018659 1.34682089,7.36076968 1.34610971,7.35422196 C1.34466284,7.34701213 1.34321597,7.33685949 1.34211242,7.32812922 L1.34211242,7.31908014 C1.34610971,7.30421904 1.34897894,7.28938248 1.35045032,7.27307453 C1.35334406,7.26439331 1.35552662,7.25605538 1.35878822,7.24663847 C2.99875609,3.71190615 6.46281238,1.34031164 9.99428307,1.34031164 C13.5271761,1.34031164 16.9905457,3.7140642 18.6254618,7.24335233 C18.6269087,7.25024336 18.6283801,7.25605538 18.6305626,7.26076383 C18.6320095,7.26655131 18.6334319,7.27236333 18.6363256,7.27851867 C18.639955,7.30497925 18.6428488,7.33107199 18.6464782,7.34409385 C18.6421376,7.35785139 18.6399796,7.37089777 18.637797,7.38465529 Z M9.99428307,4.00356118 C8.15861968,4.00356118 6.66427087,5.49717427 6.66427087,7.33320552 C6.66427087,9.16886891 8.15861968,10.6632177 9.99428307,10.6632177 C11.8299465,10.6632177 13.3242953,9.16886891 13.3242953,7.33320552 C13.3242953,5.49717427 11.8299465,4.00356118 9.99428307,4.00356118 Z M9.99428307,9.33121283 C8.89345888,9.33121283 7.99630028,8.43476541 7.99630028,7.33323004 C7.99630028,6.23203798 8.89345888,5.3356151 9.99428307,5.3356151 C11.0958184,5.3356151 11.9923149,6.23206252 11.9923149,7.33323004 C11.9923149,8.43476541 11.0958184,9.33121283 9.99428307,9.33121283 Z" id="形状"></path>
            </g>
        </g>
    </g>
</svg>