<?xml version="1.0" encoding="UTF-8"?>
<svg width="17px" height="18px" viewBox="0 0 17 18" version="1.1" xmlns="http://www.w3.org/2000/svg" xmlns:xlink="http://www.w3.org/1999/xlink">
    <!-- Generator: Sketch 60 (88103) - https://sketch.com -->
    <title>dingdan</title>
    <desc>Created with Sketch.</desc>
    <g id="切图" stroke="none" stroke-width="1" fill="none" fill-rule="evenodd">
        <g id="图标" transform="translate(-29.000000, -283.000000)" fill-rule="nonzero">
            <g id="dingdan" transform="translate(29.000000, 283.000000)">
                <polygon id="路径" fill="#41C0FF" points="3.609 0.018 12.591 0.018 12.591 1.818 3.609 1.818"></polygon>
                <path d="M13.491,0.018 L13.491,2.709 L2.709,2.709 L2.709,0.018 L0.018,0.018 L0.018,17.982 L16.191,17.982 L16.191,0.018 L13.491,0.018 Z M13.491,14.391 L2.709,14.391 L2.709,12.591 L13.482,12.591 L13.482,14.391 L13.491,14.391 Z M13.491,10.8 L2.709,10.8 L2.709,9 L13.482,9 L13.482,10.8 L13.491,10.8 Z M13.491,7.2 L2.709,7.2 L2.709,5.4 L13.482,5.4 L13.482,7.2 L13.491,7.2 Z" id="形状" fill="#FFFFFF"></path>
            </g>
        </g>
    </g>
</svg>