<?xml version="1.0" encoding="UTF-8"?>
<svg width="20px" height="20px" viewBox="0 0 20 20" version="1.1" xmlns="http://www.w3.org/2000/svg" xmlns:xlink="http://www.w3.org/1999/xlink">
    <!-- Generator: Sketch 60 (88103) - https://sketch.com -->
    <title>geren-2</title>
    <desc>Created with Sketch.</desc>
    <g id="切图" stroke="none" stroke-width="1" fill="none" fill-rule="evenodd">
        <g id="图标" transform="translate(-422.000000, -172.000000)" fill="#000000" fill-rule="nonzero">
            <g id="geren-2" transform="translate(422.000000, 172.000000)">
                <path d="M9.99713541,20 C15.5071354,20 19.9896354,15.5141667 19.9896354,10 C19.9896354,4.48583334 15.5063021,0 9.99713541,0 C4.48713541,0 0.00463541016,4.48583334 0.00463541016,10 C0.00463541016,15.5141667 4.48713541,20 9.99630209,20 L9.99713541,20 Z M9.99713541,1.25 C14.8188021,1.25 18.7404688,5.175 18.7404688,10 C18.7404688,14.825 14.8188021,18.75 9.99713541,18.75 C5.17546875,18.75 1.25296875,14.825 1.25296875,10 C1.25296875,5.175 5.17546875,1.25 9.99713541,1.25 Z M9.99713541,3.90583334 C11.9888021,3.90583334 13.6038021,5.50916668 13.6038021,7.48666666 C13.6038021,9.46333332 11.9896354,11.0658333 9.99713541,11.0658333 C8.00546875,11.0658333 6.39046875,9.46333334 6.39046875,7.48666666 C6.39046875,5.50916666 8.00546875,3.90583334 9.99713541,3.90583334 Z M9.99713541,10.0425 C11.4196354,10.0425 12.5729688,8.8975 12.5729688,7.48583334 C12.5729688,6.07333334 11.4196354,4.92916666 9.99713541,4.92916666 C8.57380207,4.92916666 7.42046875,6.07333332 7.42046875,7.48583334 C7.42046875,8.89833336 8.57380209,10.0425 9.99713541,10.0425 Z M9.99713541,10.0425 C12.8429688,10.0425 15.1496354,12.3316667 15.1496354,15.1566667 L14.1188021,15.1566667 C14.1188021,12.8983333 12.2738021,11.065 9.99713541,11.065 C7.72046875,11.065 5.87463541,12.8975 5.87463541,15.1566667 L4.84463541,15.1566667 C4.84463541,12.3316667 7.15046875,10.0425 9.99713541,10.0425 Z" id="形状"></path>
            </g>
        </g>
    </g>
</svg>