<?xml version="1.0" encoding="utf-8"?>
<!-- Generator: Adobe Illustrator 22.0.0, SVG Export Plug-In . SVG Version: 6.00 Build 0)  -->
<svg version="1.1" id="图层_1" xmlns="http://www.w3.org/2000/svg" xmlns:xlink="http://www.w3.org/1999/xlink" x="0px" y="0px"
	 viewBox="0 0 200 200" style="enable-background:new 0 0 200 200;" xml:space="preserve">
<path d="M184.6,30.9c-1.6,0-23.3-0.8-45-10c-21.6-9.2-35.8-19.2-38.3-20l-0.8-0.8l-0.8,0.8c-0.8,0.8-15,10.8-38.3,20
	c-21.6,9.2-42.4,9.2-45,10h-0.8v85.8c0,19.2,11.6,35.8,31.6,55c18.3,16.7,39.1,28.3,53.4,28.3s35-11.6,53.4-28.3
	c20-19.2,31.6-35.8,31.6-55V30.9L184.6,30.9L184.6,30.9z M109.9,155H91.1V80.2h18.8V155z M136.6,100.5
	c-10.1-10.2-28.6-33.6-36.1-44.9c-7.5,11.3-25.6,35-36.2,44.9H42.7C58.2,83.9,82.3,53,91.3,38.2h18.3c9.2,14.8,33.1,45.7,48.7,62.3
	H136.6z"/>
</svg>
