<?xml version="1.0" encoding="UTF-8"?>
<svg width="20px" height="20px" viewBox="0 0 20 20" version="1.1" xmlns="http://www.w3.org/2000/svg" xmlns:xlink="http://www.w3.org/1999/xlink">
    <!-- Generator: Sketch 60 (88103) - https://sketch.com -->
    <title>gou-2</title>
    <desc>Created with Sketch.</desc>
    <g id="切图" stroke="none" stroke-width="1" fill="none" fill-rule="evenodd">
        <g id="图标" transform="translate(-381.000000, -170.000000)" fill="#FFFFFF" fill-rule="nonzero">
            <g id="gou-2" transform="translate(381.000000, 170.000000)">
                <path d="M0.0213483929,9.98071652 C0.0213483929,4.4827527 4.49456699,0.00953410714 9.99250795,0.00953410714 C11.9530073,0.00953410714 13.8536615,0.578656808 15.4812894,1.65399632 C15.809524,1.87183719 15.9031519,2.31208728 15.6837578,2.64189795 C15.4674473,2.97022391 15.0271744,3.06069971 14.694303,2.84285884 C13.2998884,1.92092391 11.6753441,1.43309467 9.99246225,1.43309467 C5.27995449,1.43309467 1.44639364,5.26816306 1.44639364,9.98071652 C1.44639364,14.6932928 5.27995449,18.526808 9.99246225,18.526808 C14.7049929,18.526808 18.5385537,14.6932928 18.5385537,9.98071652 C18.5385537,9.68155935 18.5247802,9.38400109 18.4940582,9.08948076 C18.4541995,8.6998021 18.7379842,8.3500735 19.1291704,8.30866158 C19.5203338,8.26722683 19.8716156,8.5525648 19.91152,8.9422206 C19.9467875,9.28733518 19.9637132,9.63557908 19.9637132,9.98071652 C19.9637132,15.4802107 15.4920021,19.9518989 9.99248509,19.9518989 C4.49456696,19.9518989 0.0213483929,15.4802335 0.0213483929,9.98071652 Z" id="路径"></path>
                <path d="M8.98176464,15.3247732 C8.74293228,15.3247732 8.50259239,15.2326071 8.32191489,15.0513815 L4.47935442,11.1980397 C4.11498433,10.8325047 4.11498433,10.2365659 4.47935442,9.87258411 C4.84523208,9.50860232 5.43769895,9.50860232 5.80051583,9.87258411 L8.98176464,13.0625356 L17.1062905,4.91185605 C17.4706149,4.54632103 18.0630818,4.54632103 18.4259215,4.91185605 C18.7887612,5.27894431 18.7887612,5.87177665 18.4259215,6.2357356 L9.64003835,15.0513815 C9.45940654,15.2326071 9.21902094,15.3247732 8.98176464,15.3247732 Z" id="路径"></path>
            </g>
        </g>
    </g>
</svg>