<?xml version="1.0" encoding="UTF-8"?>
<svg width="18px" height="18px" viewBox="0 0 18 18" version="1.1" xmlns="http://www.w3.org/2000/svg" xmlns:xlink="http://www.w3.org/1999/xlink">
    <!-- Generator: Sketch 60 (88103) - https://sketch.com -->
    <title>hetongguanli</title>
    <desc>Created with Sketch.</desc>
    <g id="切图" stroke="none" stroke-width="1" fill="none" fill-rule="evenodd">
        <g id="图标" transform="translate(-28.000000, -336.000000)" fill-rule="nonzero">
            <g id="hetongguanli" transform="translate(28.000000, 336.000000)">
                <path d="M14.1313433,9.84179104 C12.0537313,9.84179104 10.3701493,11.5343284 10.3701493,13.6029851 L10.3701493,13.6029851 C10.3701493,15.680597 12.0447761,17.3641791 14.1313433,17.3820896 C15.1253731,17.3820896 16.0925373,16.9880597 16.8089552,16.280597 C17.5074627,15.5820896 17.9104478,14.6149254 17.9104478,13.6208955 C17.9014925,11.5253731 16.2179104,9.85074627 14.1313433,9.84179104 Z M16.8179104,12.9850746 L15.6447761,14.1402985 C15.6089552,14.1761194 15.5910448,14.2208955 15.6,14.2746269 L15.8865672,15.8865672 C15.8955224,15.9671642 15.841791,16.0567164 15.761194,16.0656716 C15.7253731,16.0656716 15.6985075,16.0656716 15.6626866,16.0567164 L14.2119403,15.2955224 C14.1671642,15.2776119 14.1134328,15.2776119 14.0776119,15.2955224 L12.6268657,16.0567164 C12.5552239,16.1014925 12.4567164,16.0656716 12.4298507,15.9940299 C12.4208955,15.958209 12.4119403,15.9313433 12.4208955,15.8955224 L12.7074627,14.2835821 C12.7164179,14.2298507 12.6985075,14.1850746 12.6626866,14.1492537 L11.4895522,13.0029851 C11.4268657,12.9402985 11.4268657,12.841791 11.4895522,12.7791045 C11.5074627,12.761194 11.5432836,12.7343284 11.5701493,12.7343284 L13.1910448,12.4925373 C13.2447761,12.4835821 13.2895522,12.4477612 13.3074627,12.4119403 L14.0328358,10.9432836 C14.0776119,10.8716418 14.158209,10.8358209 14.2298507,10.8716418 C14.2656716,10.880597 14.2925373,10.9164179 14.3104478,10.9432836 L15.0358209,12.4119403 C15.0537313,12.4567164 15.0985075,12.4835821 15.1522388,12.4925373 L16.7731343,12.7343284 C16.8179104,12.7432836 16.8447761,12.7701493 16.880597,12.7970149 C16.8985075,12.8328358 16.9164179,12.8686567 16.9164179,12.9134328 C16.8626866,12.9313433 16.8447761,12.958209 16.8179104,12.9850746 L16.8179104,12.9850746 Z" id="形状" fill="#41C0FF"></path>
                <path d="M9.30447761,13.7820896 L3.21492537,13.7820896 C2.83880597,13.7641791 2.54328358,13.4238806 2.56119403,13.0477612 C2.57910448,12.6985075 2.86567164,12.4298507 3.21492537,12.3940299 L9.33134328,12.3940299 C9.3761194,12.3940299 9.42985075,12.3940299 9.46567164,12.4029851 C10.1014925,10.0477612 12.4298507,8.53432836 14.8567164,8.91940299 L14.8656716,1.44179104 C14.8656716,0.698507463 14.2656716,0.0895522388 13.5223881,0.0805970149 L13.5134328,0.0805970149 L1.36119403,0.0805970149 C0.617910448,0.0895522388 0.00895522388,0.689552239 0.00895522388,1.45074627 L0,16.5671642 C0,17.3104478 0.6,17.919403 1.35223881,17.9283582 C1.35223881,17.9283582 1.35223881,17.9283582 1.36119403,17.9283582 L11.9373134,17.9283582 C10.361194,17.1223881 9.34925373,15.5462687 9.30447761,13.7820896 L9.30447761,13.7820896 Z M2.74029851,5.13134328 C2.86567164,5.00597015 3.04477612,4.92537313 3.21492537,4.92537313 L6.01791045,4.92537313 C6.39402985,4.90746269 6.73432836,5.19402985 6.75223881,5.57910448 C6.77014925,5.95522388 6.48358209,6.29552239 6.09850746,6.31343284 C6.08059701,6.31343284 6.04477612,6.31343284 6.02686567,6.31343284 L3.23283582,6.31343284 C2.85671642,6.31343284 2.54328358,6.00895522 2.54328358,5.6238806 L2.54328358,5.6238806 C2.53432836,5.4358209 2.61492537,5.25671642 2.74029851,5.13134328 L2.74029851,5.13134328 Z M3.23283582,8.45373134 L10.1462687,8.45373134 C10.5134328,8.46268657 10.8179104,8.76716418 10.8179104,9.14328358 C10.8179104,9.51940299 10.5223881,9.8238806 10.1462687,9.83283582 L3.23283582,9.83283582 C2.85671642,9.8238806 2.55223881,9.50149254 2.57014925,9.11641791 C2.57910448,8.75820896 2.86567164,8.47164179 3.23283582,8.45373134 L3.23283582,8.45373134 Z" id="形状" fill="#FFFFFF"></path>
            </g>
        </g>
    </g>
</svg>