<?xml version="1.0" encoding="UTF-8"?>
<svg width="20px" height="20px" viewBox="0 0 20 20" version="1.1" xmlns="http://www.w3.org/2000/svg" xmlns:xlink="http://www.w3.org/1999/xlink">
    <!-- Generator: Sketch 60 (88103) - https://sketch.com -->
    <title>jia</title>
    <desc>Created with Sketch.</desc>
    <g id="切图" stroke="none" stroke-width="1" fill="none" fill-rule="evenodd">
        <g id="图标" transform="translate(-167.000000, -202.000000)" fill="#666666" fill-rule="nonzero">
            <g id="jia" transform="translate(167.000000, 202.000000)">
                <path d="M16.125,9.25 L10.625,9.25 L10.625,3.875 C10.625,3.5 10.375,3.25 10,3.25 C9.625,3.25 9.375,3.5 9.375,3.875 L9.375,9.375 L4,9.375 C3.5,9.375 3.25,9.625 3.25,10 C3.25,10.375 3.5,10.625 3.875,10.625 L9.25,10.625 L9.25,16 C9.25,16.375 9.5,16.625 9.875,16.625 C10.25,16.625 10.5,16.375 10.5,16 L10.5,10.625 L15.875,10.625 C16.25,10.625 16.5,10.375 16.5,10 C16.5,9.625 16.5,9.25 16.125,9.25 L16.125,9.25 Z M10,0 C4.5,0 0,4.5 0,10 C0,15.5 4.5,20 10,20 C15.5,20 20,15.5 20,10 C20,4.5 15.5,0 10,0 Z M10,18.625 C5.25,18.625 1.375,14.75 1.375,10 C1.375,5.25 5.25,1.375 10,1.375 C14.75,1.375 18.625,5.25 18.625,10 C18.625,14.75 14.75,18.625 10,18.625 Z" id="形状"></path>
            </g>
        </g>
    </g>
</svg>