<?xml version="1.0" encoding="UTF-8"?>
<svg width="18px" height="18px" viewBox="0 0 18 18" version="1.1" xmlns="http://www.w3.org/2000/svg" xmlns:xlink="http://www.w3.org/1999/xlink">
    <!-- Generator: Sketch 60 (88103) - https://sketch.com -->
    <title>jiaoseguanli</title>
    <desc>Created with Sketch.</desc>
    <g id="切图" stroke="none" stroke-width="1" fill="none" fill-rule="evenodd">
        <g id="图标" transform="translate(-28.000000, -440.000000)" fill-rule="nonzero">
            <g id="jiaoseguanli" transform="translate(28.000000, 440.000000)">
                <path d="M13.842,9.396 C12.978,9.981 11.934,10.314 10.827,10.314 C9.72,10.314 8.676,9.972 7.821,9.396 C5.481,10.539 3.87,12.978 3.87,15.777 C3.87,18.756 17.811,18.711 17.811,15.777 C17.802,12.969 16.191,10.539 13.842,9.396 L13.842,9.396 L13.842,9.396 Z" id="路径" fill="#FFFFFF"></path>
                <path d="M6.138,4.77 C6.138,2.142 8.235,0 10.827,0 C13.419,0 15.516,2.124 15.516,4.761 C15.516,7.389 13.419,9.522 10.827,9.522 C8.235,9.522 6.138,7.389 6.138,4.77 L6.138,4.77 L6.138,4.77 L6.138,4.77 Z" id="路径" fill="#FFFFFF"></path>
                <path d="M3.033,16.038 C3.033,16.146 3.051,16.254 3.087,16.353 C1.332,16.065 0.009,15.507 0.009,14.652 C0.009,12.213 1.404,10.107 3.429,9.126 C4.14,9.603 4.977,9.891 5.886,9.918 C4.149,11.376 3.033,13.572 3.033,16.038 L3.033,16.038 L3.033,16.038 Z" id="路径" fill="#41C0FF"></path>
                <path d="M5.364,4.77 C5.364,3.564 5.742,2.439 6.39,1.53 C6.273,1.521 6.165,1.521 6.048,1.521 C3.924,1.521 2.196,3.276 2.196,5.436 C2.196,7.596 3.924,9.351 6.048,9.351 C6.525,9.351 6.993,9.27 7.416,9.099 C6.156,8.082 5.364,6.525 5.364,4.77 L5.364,4.77 Z" id="路径" fill="#41C0FF"></path>
            </g>
        </g>
    </g>
</svg>