<?xml version="1.0" encoding="UTF-8"?>
<svg width="17px" height="18px" viewBox="0 0 17 18" version="1.1" xmlns="http://www.w3.org/2000/svg" xmlns:xlink="http://www.w3.org/1999/xlink">
    <!-- Generator: Sketch 60 (88103) - https://sketch.com -->
    <title>jigouguanli</title>
    <desc>Created with Sketch.</desc>
    <g id="切图" stroke="none" stroke-width="1" fill="none" fill-rule="evenodd">
        <g id="图标" transform="translate(-28.000000, -544.000000)" fill-rule="nonzero">
            <g id="jigouguanli" transform="translate(28.000000, 544.000000)">
                <path d="M10.602,1.575 L15.237,4.275 C15.498,4.428 15.66,4.716 15.66,5.013 L15.66,16.335 L16.569,16.335 C16.74,16.335 16.875,16.47 16.875,16.641 L16.875,17.613 C16.866,17.784 16.722,17.919 16.56,17.919 L8.934684,17.919 L8.934684,17.919 L8.94528175,16.326 L9.306,16.326 L9.306,2.313 C9.306,2.007 9.477,1.728 9.738,1.575 C9.999,1.422 10.332,1.431 10.602,1.575 Z M12.933,12.438 L11.97,12.438 C11.799,12.438 11.664,12.573 11.664,12.744 L11.664,13.707 C11.664,13.878 11.799,14.013 11.97,14.013 L12.933,14.013 C13.104,14.013 13.239,13.878 13.239,13.707 L13.239,12.744 C13.23,12.573 13.095,12.438 12.933,12.438 Z M12.933,10.017 L11.97,10.017 C11.799,10.017 11.664,10.152 11.664,10.323 L11.664,11.277 C11.664,11.448 11.799,11.583 11.97,11.583 L12.933,11.583 C13.104,11.583 13.239,11.448 13.239,11.277 L13.239,10.314 C13.23,10.143 13.095,10.017 12.933,10.017 Z M12.933,7.596 L11.97,7.596 C11.799,7.596 11.664,7.731 11.664,7.902 L11.664,8.865 C11.664,9.036 11.799,9.171 11.97,9.171 L12.933,9.171 C13.104,9.171 13.239,9.036 13.239,8.865 L13.239,7.902 C13.23,7.731 13.095,7.596 12.933,7.596 Z M12.933,5.175 L11.97,5.175 C11.799,5.175 11.664,5.31 11.664,5.481 L11.664,6.444 C11.664,6.615 11.799,6.75 11.97,6.75 L12.933,6.75 C13.104,6.75 13.239,6.615 13.239,6.444 L13.239,5.481 C13.23,5.31 13.095,5.175 12.933,5.175 Z" id="形状结合" fill="#41C0FF"></path>
                <path d="M7.956,0.225 C8.199,0.378 8.334,0.657 8.334,0.936 L8.334,16.326 L8.81235141,16.326 L8.77588232,17.919 L0.351,17.919 L0.351,17.919 C0.18,17.919 0.045,17.784 0.045,17.613 L0.045,16.623 C0.045,16.452 0.18,16.317 0.351,16.317 L1.26,16.317 L1.26,4.041 C1.26,3.699 1.458,3.393 1.773,3.258 L7.146,0.153 C7.407,0.036 7.713,0.072 7.956,0.225 Z M5.049,14.769 L4.086,14.769 C3.915,14.769 3.78,14.904 3.78,15.075 L3.78,16.038 C3.78,16.209 3.915,16.344 4.086,16.344 L5.049,16.344 C5.22,16.344 5.355,16.209 5.355,16.038 L5.355,15.075 C5.355,14.913 5.22,14.769 5.049,14.769 Z M5.049,12.348 L4.086,12.348 C3.915,12.348 3.78,12.483 3.78,12.654 L3.78,13.617 C3.78,13.788 3.915,13.923 4.086,13.923 L5.049,13.923 C5.22,13.923 5.355,13.788 5.355,13.617 L5.355,12.654 C5.355,12.483 5.22,12.348 5.049,12.348 Z M5.049,9.927 L4.086,9.927 C3.915,9.927 3.78,10.062 3.78,10.233 L3.78,11.187 C3.78,11.358 3.915,11.493 4.086,11.493 L5.049,11.493 C5.22,11.493 5.355,11.358 5.355,11.187 L5.355,10.224 C5.355,10.062 5.22,9.927 5.049,9.927 Z M5.049,7.506 L4.086,7.506 C3.915,7.506 3.78,7.641 3.78,7.812 L3.78,8.775 C3.78,8.946 3.915,9.081 4.086,9.081 L5.049,9.081 C5.22,9.081 5.355,8.946 5.355,8.775 L5.355,7.803 C5.355,7.641 5.22,7.506 5.049,7.506 Z M5.049,5.076 L4.086,5.076 C3.915,5.076 3.78,5.211 3.78,5.382 L3.78,6.345 C3.78,6.516 3.915,6.651 4.086,6.651 L5.049,6.651 C5.22,6.651 5.355,6.516 5.355,6.345 L5.355,5.382 C5.355,5.22 5.22,5.076 5.049,5.076 Z" id="形状结合" fill="#FFFFFF"></path>
            </g>
        </g>
    </g>
</svg>