<?xml version="1.0" encoding="utf-8"?>
<!-- Generator: Adobe Illustrator 22.0.0, SVG Export Plug-In . SVG Version: 6.00 Build 0)  -->
<svg version="1.1" id="图层_1" xmlns="http://www.w3.org/2000/svg" xmlns:xlink="http://www.w3.org/1999/xlink" x="0px" y="0px"
	 viewBox="0 0 200 200" style="enable-background:new 0 0 200 200;" xml:space="preserve">
<g>
	<g>
		<path d="M184.7,30.8c-1.6,0-23.3-0.8-45.1-10c-21.6-9.2-35.9-19.2-38.3-20L100.5,0l-0.8,0.8c-0.8,0.8-15.1,10.8-38.3,20
			C39.7,30,18.9,30,16.3,30.8h-0.8v85.9c0,19.2,11.6,35.9,31.6,55.1c18.4,16.7,39.2,28.4,53.4,28.4s35.1-11.6,53.4-28.4
			c20-19.2,31.6-35.9,31.6-55.1V30.8C185.6,30.8,184.7,30.8,184.7,30.8z M147.6,145.6H53.4v-12.9h9.6V96.5h16v36.2h16.2V79.2h16
			v20.1h33.8v12.9h-33.8v20.5h36.1v12.9H147.6z M147.6,92.3h-9.9c-4-0.1-6.8-2.2-8.6-6.6l-6.7-18.5H78.9l-6.1,18.1
			c-2,4.6-4.9,6.8-8.8,6.8h-10V79.3h2c1.5,0,2.5-0.7,2.9-2l8.6-22.9h66.1l9.6,23.8c0.4,0.8,1.2,1.2,2.4,1.2h1.9v13.1H147.6z"/>
	</g>
</g>
</svg>
