<?xml version="1.0" encoding="UTF-8"?>
<svg width="17px" height="16px" viewBox="0 0 17 16" version="1.1" xmlns="http://www.w3.org/2000/svg" xmlns:xlink="http://www.w3.org/1999/xlink">
    <!-- Generator: Sketch 60 (88103) - https://sketch.com -->
    <title>riliriqi</title>
    <desc>Created with Sketch.</desc>
    <g id="切图" stroke="none" stroke-width="1" fill="none" fill-rule="evenodd">
        <g id="图标" transform="translate(-208.000000, -174.000000)" fill="#000000" fill-rule="nonzero">
            <g id="riliriqi" transform="translate(208.000000, 174.000000)">
                <path d="M7.89285714,9.76410256 L9.10714286,9.76410256 C9.44628906,9.76410256 9.71428572,9.49473156 9.71428572,9.15384615 C9.71428572,8.81296074 9.44628906,8.54358974 9.10714286,8.54358974 L7.89285714,8.54358974 C7.55371094,8.54358974 7.28571428,8.81296074 7.28571428,9.15384615 C7.28571428,9.49473156 7.55371094,9.76410256 7.89285714,9.76410256 Z M7.89285714,12.2051282 L9.10714286,12.2051282 C9.44628906,12.2051282 9.71428572,11.9357572 9.71428572,11.5948718 C9.71428572,11.2539864 9.44628906,10.9846154 9.10714286,10.9846154 L7.89285714,10.9846154 C7.55371094,10.9846154 7.28571428,11.2539864 7.28571428,11.5948718 C7.28571428,11.9357572 7.55371094,12.2051282 7.89285714,12.2051282 Z M14.5714286,1.22051281 L12.1428571,1.22051281 L12.1428571,0.610256407 C12.1428571,0.269370997 11.8748605,0 11.5357143,0 C11.1965681,0 10.9285714,0.269370997 10.9285714,0.610256407 L10.9285714,1.22051281 L6.07142857,1.22051281 L6.07142857,0.610256407 C6.07142857,0.269370997 5.80343191,0 5.46428571,0 C5.12513952,0 4.85714286,0.269370997 4.85714286,0.610256407 L4.85714286,1.22051281 L2.42857142,1.22051281 C1.09333146,1.22051281 0,2.31945112 0,3.66153846 L0,13.425641 C0,14.7677284 1.09333148,15.8666667 2.42857142,15.8666667 L14.5714286,15.8666667 C15.9066685,15.8666667 17,14.7677284 17,13.425641 L17,3.66153846 C17,2.31945112 15.9066685,1.22051281 14.5714286,1.22051281 L14.5714286,1.22051281 Z M15.7857143,13.425641 C15.7857143,14.0978766 15.2402344,14.6461538 14.5714286,14.6461538 L2.42857142,14.6461538 C1.75976563,14.6461538 1.21428571,14.0978766 1.21428571,13.425641 L1.21428571,6.10256411 L15.7857143,6.10256411 L15.7857143,13.425641 Z M15.7857143,4.88205128 L1.21428571,4.88205128 L1.21428571,3.66153846 C1.21428571,2.98930289 1.75976563,2.44102565 2.42857142,2.44102565 L4.85714286,2.44102565 L4.85714286,3.05128206 C4.85714286,3.39216747 5.12513952,3.66153846 5.46428571,3.66153846 C5.80343191,3.66153846 6.07142857,3.39216747 6.07142857,3.05128206 L6.07142857,2.44102565 L10.9285714,2.44102565 L10.9285714,3.05128206 C10.9285714,3.39216747 11.1965681,3.66153846 11.5357143,3.66153846 C11.8748605,3.66153846 12.1428571,3.39216747 12.1428571,3.05128206 L12.1428571,2.44102565 L14.5714286,2.44102565 C15.2402344,2.44102565 15.7857143,2.98930289 15.7857143,3.66153846 L15.7857143,4.88205128 Z M4.24999999,12.2051282 L5.46428571,12.2051282 C5.80343191,12.2051282 6.07142857,11.9357572 6.07142857,11.5948718 C6.07142857,11.2539864 5.80343191,10.9846154 5.46428571,10.9846154 L4.24999999,10.9846154 C3.91085379,10.9846154 3.64285713,11.2539864 3.64285713,11.5948718 C3.64285713,11.9357572 3.91085379,12.2051282 4.24999999,12.2051282 Z M11.5357143,9.76410256 L12.75,9.76410256 C13.0891462,9.76410256 13.3571429,9.49473156 13.3571429,9.15384615 C13.3571429,8.81296074 13.0891462,8.54358974 12.75,8.54358974 L11.5357143,8.54358974 C11.1965681,8.54358974 10.9285714,8.81296074 10.9285714,9.15384615 C10.9285714,9.49473156 11.1965681,9.76410256 11.5357143,9.76410256 Z M4.24999999,9.76410256 L5.46428571,9.76410256 C5.80343191,9.76410256 6.07142857,9.49473156 6.07142857,9.15384615 C6.07142857,8.81296074 5.80343191,8.54358974 5.46428571,8.54358974 L4.24999999,8.54358974 C3.91085379,8.54358974 3.64285713,8.81296074 3.64285713,9.15384615 C3.64285713,9.49473156 3.91085379,9.76410256 4.24999999,9.76410256 Z M11.5357143,12.2051282 L12.75,12.2051282 C13.0891462,12.2051282 13.3571429,11.9357572 13.3571429,11.5948718 C13.3571429,11.2539864 13.0891462,10.9846154 12.75,10.9846154 L11.5357143,10.9846154 C11.1965681,10.9846154 10.9285714,11.2539864 10.9285714,11.5948718 C10.9285714,11.9357572 11.1965681,12.2051282 11.5357143,12.2051282 Z" id="形状"></path>
            </g>
        </g>
    </g>
</svg>