<?xml version="1.0" encoding="UTF-8"?>
<svg width="19px" height="18px" viewBox="0 0 19 18" version="1.1" xmlns="http://www.w3.org/2000/svg" xmlns:xlink="http://www.w3.org/1999/xlink">
    <!-- Generator: Sketch 60 (88103) - https://sketch.com -->
    <title>shangquanguanli</title>
    <desc>Created with Sketch.</desc>
    <g id="切图" stroke="none" stroke-width="1" fill="none" fill-rule="evenodd">
        <g id="图标" transform="translate(-28.000000, -597.000000)" fill-rule="nonzero">
            <g id="shangquanguanli" transform="translate(28.000000, 597.000000)">
                <path d="M5.724,0.666 C4.617,1.116 3.6,1.782 2.745,2.646 C-0.765,6.129 -0.801,11.799 2.673,15.318 C6.147,18.837 11.835,18.873 15.354,15.39 C15.372,15.372 15.399,15.345 15.426,15.318 C17.982,12.762 18.765,8.937 17.406,5.598 C15.543,1.008 10.314,-1.197 5.724,0.666 Z M16.308,12.636 L12.348,8.703 C12.357,8.784 12.357,8.883 12.357,8.964 C12.357,9.828 12.015,10.656 11.403,11.268 C11.394,11.277 11.367,11.304 11.358,11.313 C11.349,11.322 11.34,11.331 11.322,11.349 L5.967,16.758 C5.823,16.902 5.58,16.902 5.427,16.758 C5.283,16.614 5.283,16.371 5.427,16.218 L9.405,12.213 C9.306,12.222 9.216,12.222 9.108,12.222 C8.244,12.222 7.416,11.88 6.804,11.268 C6.732,11.196 6.66,11.124 6.597,11.034 L1.377,5.859 C1.233,5.715 1.233,5.472 1.377,5.319 C1.521,5.175 1.764,5.175 1.917,5.319 L5.868,9.243 C5.796,8.307 6.12,7.38 6.777,6.705 C6.795,6.66 6.822,6.624 6.858,6.579 L12.249,1.134 C12.393,0.99 12.636,0.99 12.789,1.134 C12.933,1.278 12.933,1.521 12.789,1.674 L8.766,5.733 C8.874,5.724 8.991,5.724 9.09,5.724 C9.954,5.724 10.782,6.066 11.394,6.678 C11.466,6.75 11.529,6.822 11.592,6.903 L16.83,12.096 C17.001,12.249 17.001,12.492 16.848,12.636 C16.704,12.78 16.461,12.78 16.308,12.636 Z" id="形状" fill="#FFFFFF"></path>
                <path d="M5.724,0.666 C8.16717818,-0.325642909 10.791401,-0.16471968 12.9926784,0.894958076 L12.7749061,1.12135528 C12.6214222,0.990131169 12.3886539,0.994346076 12.249,1.134 L12.249,1.134 L6.858,6.579 C6.822,6.624 6.795,6.66 6.777,6.705 C6.12,7.38 5.796,8.307 5.868,9.243 L5.868,9.243 L1.917,5.319 C1.85729268,5.26280488 1.78387924,5.22853956 1.70799201,5.21620405 L1.2171018,4.66037016 C1.61907954,3.93710726 2.12844398,3.25781328 2.745,2.646 C3.6,1.782 4.617,1.116 5.724,0.666 Z" id="形状结合" fill="#41C0FF"></path>
            </g>
        </g>
    </g>
</svg>