<?xml version="1.0" encoding="UTF-8"?>
<svg width="14px" height="16px" viewBox="0 0 14 16" version="1.1" xmlns="http://www.w3.org/2000/svg" xmlns:xlink="http://www.w3.org/1999/xlink">
    <!-- Generator: Sketch 60 (88103) - https://sketch.com -->
    <title>shanchu</title>
    <desc>Created with Sketch.</desc>
    <g id="切图" stroke="none" stroke-width="1" fill="none" fill-rule="evenodd">
        <g id="图标" transform="translate(-293.000000, -205.000000)">
            <g id="shanchu" transform="translate(291.000000, 204.000000)">
                <rect id="矩形" x="0" y="0" width="18" height="18"></rect>
                <path d="M2.69158879,3.72170301 C2.69158879,3.28071997 3.0522389,2.92973347 3.4940353,2.92973347 L7.48823537,2.92973347 L7.48823537,2.13776393 C7.48823537,1.69678089 7.84888549,1.34579439 8.29068189,1.34579439 L9.88655866,1.34579439 C10.3283551,1.34579439 10.6890052,1.69678089 10.6890052,2.13776393 L10.6890052,2.92973347 L14.674189,2.92973347 C15.1159854,2.92973347 15.4766355,3.28071997 15.4766355,3.72170301 L15.4766355,4.51367255 L2.69158879,4.51367255 L2.69158879,3.72170301 L2.69158879,3.72170301 Z M14.674189,6.09761163 L14.674189,7.68155071 L14.674189,15.8622361 C14.674189,16.3032191 14.3135389,16.6542056 13.8717425,16.6542056 L4.28746556,16.6542056 C3.84566917,16.6542056 3.48501905,16.3032191 3.48501905,15.8622361 L3.48501905,7.68155071 L3.48501905,6.09761163 L3.48501905,5.31464174 L14.6651727,5.31464174 L14.6651727,6.09761163 L14.674189,6.09761163 Z M6.68578886,7.68155071 C6.68578886,7.24056767 6.32513874,6.88958117 5.88334234,6.88958117 C5.44154594,6.88958117 5.08991208,7.24056767 5.08991208,7.68155071 L5.08991208,14.278297 C5.08991208,14.7102804 5.4505622,15.0702665 5.89235859,15.0702665 C6.33415499,15.0702665 6.69480511,14.71928 6.69480511,14.278297 L6.68578886,7.68155071 L6.68578886,7.68155071 L6.68578886,7.68155071 Z M9.88655866,7.68155071 C9.88655866,7.24056767 9.52590855,6.88958117 9.08411215,6.88958117 C8.64231575,6.88958117 8.28166563,7.24056767 8.28166563,7.68155071 L8.28166563,14.278297 C8.28166563,14.7102804 8.64231575,15.0702665 9.08411215,15.0702665 C9.52590855,15.0702665 9.88655866,14.71928 9.88655866,14.278297 L9.88655866,7.68155071 L9.88655866,7.68155071 Z M13.0783122,7.68155071 C13.0783122,7.24056767 12.7176621,6.88958117 12.2758657,6.88958117 C11.8340693,6.88958117 11.4734192,7.24056767 11.4734192,7.68155071 L11.4734192,14.278297 C11.4734192,14.7102804 11.8340693,15.0702665 12.2758657,15.0702665 C12.7176621,15.0702665 13.0783122,14.71928 13.0783122,14.278297 L13.0783122,7.68155071 L13.0783122,7.68155071 Z" id="形状" fill="#000000" fill-rule="nonzero"></path>
            </g>
        </g>
    </g>
</svg>