<?xml version="1.0" encoding="utf-8"?>
<!-- Generator: Adobe Illustrator 22.0.0, SVG Export Plug-In . SVG Version: 6.00 Build 0)  -->
<svg version="1.1" id="图层_1" xmlns="http://www.w3.org/2000/svg" xmlns:xlink="http://www.w3.org/1999/xlink" x="0px" y="0px"
	 viewBox="0 0 200 200" style="enable-background:new 0 0 200 200;" xml:space="preserve">
<path d="M173.8,0.1H26.3C11.7,0.1,0.1,11.7,0.1,26.3v147.5c0,14.5,11.8,26.2,26.2,26.2h147.5c14.5,0,26.2-11.8,26.2-26.2V26.3
	C199.9,11.7,188.2,0.1,173.8,0.1L173.8,0.1z M165.2,79c-8.8,28-34.9,48.3-65.8,48.3c-31.1,0-57.3-20.6-66-48.9
	c-5.9-2.9-9.5-8.9-9.5-15.5c0-9.6,7.8-17.5,17.5-17.5s17.5,7.8,17.5,17.5l0,0c0,4.9-2.1,9.8-5.9,13C60.2,94.7,78.3,108,99.5,108
	c21.6,0,39.8-13.7,46.8-32.9c-3.2-3.3-4.9-7.6-4.9-12.2c0-9.6,7.8-17.5,17.5-17.5s17.5,7.8,17.5,17.5l0,0
	C176.1,69.9,171.8,76.3,165.2,79L165.2,79z"/>
</svg>
