<?xml version="1.0" encoding="UTF-8"?>
<svg width="16px" height="15px" viewBox="0 0 16 15" version="1.1" xmlns="http://www.w3.org/2000/svg" xmlns:xlink="http://www.w3.org/1999/xlink">
    <!-- Generator: Sketch 60 (88103) - https://sketch.com -->
    <title>shengcheng</title>
    <desc>Created with Sketch.</desc>
    <g id="切图" stroke="none" stroke-width="1" fill="none" fill-rule="evenodd">
        <g id="图标" transform="translate(-282.000000, -173.000000)" fill="#5CCBDB" fill-rule="nonzero">
            <g id="shengcheng" transform="translate(282.000000, 173.000000)">
                <path d="M14.4747665,14.7001691 L1.44857917,14.7001691 C0.648644963,14.7001691 0,14.041724 0,13.2295397 L0,11.7582978 C0,10.9461134 0.648644963,10.2876684 1.44857917,10.2876684 L1.44857917,1.47001691 C1.44857917,0.65844508 2.09661162,0 2.89654583,0 L13.0286374,0 C13.8285716,0 14.4766041,0.65844508 14.4766041,1.47062942 L14.4766041,10.2919559 C15.2765383,10.2919559 15.9251832,10.950401 15.9251832,11.7625853 L15.9251832,13.2332147 C15.9233457,14.0435616 15.2747007,14.7001691 14.4747665,14.7001691 Z M13.0286374,1.47062942 L2.89654583,1.47062942 L2.89654583,11.0257394 L13.0286374,11.0257394 L13.0286374,1.47062942 Z M5.06604579,3.67565479 L10.8548499,3.67565479 C11.254817,3.67565479 11.5782422,4.00457108 11.5782422,4.41066325 C11.5812777,4.81298183 11.2577785,5.14168989 10.8554624,5.14505919 L5.06543327,5.14505919 C4.66546618,5.14505919 4.34267497,4.81675542 4.34267497,4.41005074 C4.34267497,4.00457108 4.66546618,3.67626729 5.06543327,3.67626729 L5.06604579,3.67565479 Z M5.06604579,7.35008456 L10.8548499,7.35008456 C11.254817,7.35008456 11.5782207,7.67838834 11.5782207,8.08448051 C11.5782207,8.49057268 11.2529795,8.81887647 10.8554624,8.81887647 L5.06543327,8.81887647 C4.66546618,8.81887647 4.34267497,8.49057269 4.34267497,8.08386801 C4.34267497,7.68022587 4.66546618,7.35008456 5.06543327,7.35008456 L5.06604579,7.35008456 Z" id="形状"></path>
            </g>
        </g>
    </g>
</svg>