<?xml version="1.0" encoding="UTF-8"?>
<svg width="20px" height="20px" viewBox="0 0 20 20" version="1.1" xmlns="http://www.w3.org/2000/svg" xmlns:xlink="http://www.w3.org/1999/xlink">
    <!-- Generator: Sketch 60 (88103) - https://sketch.com -->
    <title>shezhi</title>
    <desc>Created with Sketch.</desc>
    <g id="切图" stroke="none" stroke-width="1" fill="none" fill-rule="evenodd">
        <g id="图标" transform="translate(-167.000000, -172.000000)" fill="#000000" fill-rule="nonzero">
            <g id="shezhi" transform="translate(167.000000, 172.000000)">
                <path d="M19.3777214,8.60722456 L18.0157544,8.60722456 C17.698294,8.60722456 17.3668904,8.35973001 17.2770055,8.05671102 L16.4931898,6.15145114 C16.3413068,5.87706583 16.3988231,5.46772875 16.6226638,5.24588002 L17.5842573,4.28353952 C17.8073742,4.05974613 17.8073742,3.69762236 17.5842573,3.47382897 L16.4777525,2.36458528 C16.2527277,2.14518057 15.8938137,2.14518057 15.6687889,2.36458528 L14.7037095,3.3304116 C14.4806158,3.55275833 14.0725237,3.61201759 13.7946526,3.45888967 L11.8861559,2.67457593 C11.5863737,2.58618502 11.3388792,2.25303842 11.3388792,1.93831698 L11.3388792,0.575852017 C11.3376469,0.259186721 11.080881,0.00297700618 10.7642137,0.00243152695 L9.19708021,0.00243152695 C8.88138514,0.0036665986 8.62623341,0.260154799 8.62664761,0.575852017 L8.62664761,1.938068 C8.62664761,2.25278943 8.37591621,2.58593603 8.0751381,2.67432695 L6.16763734,3.45864069 C5.89225608,3.6117686 5.482919,3.55250934 5.25982531,3.33016262 L4.29673787,2.36632821 C4.07187981,2.14485497 3.71088941,2.14485497 3.48603135,2.36632821 L2.37703664,3.47357999 C2.26932486,3.58077484 2.20876937,3.72647287 2.20876937,3.87843526 C2.20876937,4.03039764 2.26932486,4.17609567 2.37703664,4.28329053 L3.33962614,5.24563104 C3.56421375,5.46747977 3.62272605,5.87681684 3.4698471,6.15120215 L2.6870273,8.05646203 C2.59589751,8.35948103 2.26275093,8.60697557 1.94927443,8.60697557 L0.583572586,8.60697557 C0.267935424,8.60929363 0.0129782488,8.8652502 0.0118950273,9.18089401 L0.0118950273,10.7452887 C0.0135276253,11.0603792 0.268482753,11.3154454 0.583572586,11.3172152 L1.94927443,11.3172152 C2.26275093,11.3172152 2.59589753,11.5637138 2.6870273,11.8667328 L3.4698471,13.7719927 C3.62247704,14.047125 3.56421373,14.4547191 3.34112006,14.6780618 L2.37678766,15.6404023 C2.2691072,15.747715 2.20858195,15.8934832 2.20858195,16.0455065 C2.20858195,16.1975299 2.2691072,16.3432981 2.37678766,16.4506108 L3.4850354,17.5588585 C3.7109899,17.77933 4.07189163,17.7782226 4.29648888,17.5563687 L5.25957633,16.5930322 C5.48267001,16.3711835 5.89200707,16.3139161 6.16738835,16.4655501 L8.07488912,17.2488679 C8.3756672,17.3370098 8.6263986,17.6699074 8.62639862,17.9851268 L8.62639862,19.3473428 C8.62625659,19.6630091 8.88116998,19.9194802 9.19683123,19.9212613 L10.7639648,19.9212613 C11.0805999,19.9201711 11.3371282,19.6639762 11.3386302,19.3473428 L11.3386302,17.9851268 C11.3386302,17.6699074 11.5861247,17.3367608 11.8859069,17.2488679 L13.7944036,16.4655501 C14.0722748,16.3139161 14.4806159,16.3711835 14.7034605,16.5930322 L15.6685399,17.5588585 C15.8923591,17.7812071 16.2536843,17.7812071 16.4775035,17.5588585 L17.5840083,16.4506108 C17.807046,16.2265904 17.807046,15.8644227 17.5840083,15.6404023 L16.618182,14.6780618 C16.3985742,14.4549681 16.3410578,14.046876 16.4929408,13.7719927 L17.2767565,11.8667328 C17.3663924,11.5637138 17.697796,11.3172152 18.0155054,11.3172152 L19.3774724,11.3172152 C19.6938925,11.317086 19.950945,11.0617012 19.9531338,10.7452887 L19.9531338,9.18089401 C19.9517643,8.86395401 19.6946641,8.6076325 19.3777214,8.60722456 L19.3777214,8.60722456 Z M9.98189193,12.4518557 C8.60548359,12.4518557 7.49051314,11.3371343 7.49051314,9.9619709 C7.49051314,8.5868075 8.60548357,7.47158809 9.98189193,7.47158809 C11.3580513,7.47158809 12.4755116,8.5868075 12.4755116,9.9619709 C12.4755116,11.3371343 11.3580513,12.4518557 9.98189193,12.4518557 L9.98189193,12.4518557 Z" id="形状"></path>
            </g>
        </g>
    </g>
</svg>