<?xml version="1.0" encoding="UTF-8"?>
<svg width="18px" height="15px" viewBox="0 0 18 15" version="1.1" xmlns="http://www.w3.org/2000/svg" xmlns:xlink="http://www.w3.org/1999/xlink">
    <!-- Generator: Sketch 60 (88103) - https://sketch.com -->
    <title>shuaxin-2</title>
    <desc>Created with Sketch.</desc>
    <g id="切图" stroke="none" stroke-width="1" fill="none" fill-rule="evenodd">
        <g id="图标" transform="translate(-336.000000, -131.000000)" fill="#FFFFFF" fill-rule="nonzero">
            <g id="shuaxin-2" transform="translate(336.000000, 131.000000)">
                <path d="M9.02571842,12.9969313 C6.52603351,12.9969313 4.43114321,11.2448982 3.80310154,8.86545565 L6.14283117,9.33658992 C6.44333677,9.38361675 6.72255114,9.17050127 6.7664982,8.86056947 L6.84600425,8.29933994 C6.88991118,7.98940814 6.68195528,7.69999003 6.38144968,7.65296318 L2.32611898,6.83639502 C2.19076604,6.81520098 2.02812177,6.85303275 1.91369886,6.94551956 C1.80355026,7.03169763 1.76116845,7.16100596 1.70249208,7.31241548 L0.289262869,11.3782268 C0.153187515,11.6586147 0.262613684,12.0000077 0.533640654,12.140779 L1.02446313,12.395664 C1.2954901,12.5364353 1.62557468,12.423208 1.76165005,12.1428819 L2.4634987,10.2934964 C3.5553324,12.9251231 6.08166648,14.7692308 9.02571842,14.7692308 C11.3196548,14.7692308 13.3526982,13.6449574 14.6563407,11.9051294 L12.9615693,11.2401769 C11.9727002,12.319918 10.5770498,12.9969313 9.02571842,12.9969313 Z M17.4690129,2.62801882 L16.9825651,2.37319562 C16.7138459,2.23242436 16.3866911,2.34558978 16.2518398,2.6259159 L15.5561718,4.47497156 C14.4739302,1.84375714 11.9698105,0 9.05170538,0 C6.77799667,0 4.76283315,1.12404655 3.47062894,2.86358597 L5.15047033,3.52843535 C6.13065039,2.448921 7.51401969,1.77203143 9.05170538,1.77203143 C11.5293766,1.77203143 13.6058654,3.52377597 14.2283885,5.9027649 L11.9092277,5.4317337 C11.611371,5.38470687 11.3346048,5.59778111 11.2910792,5.90765106 L11.2122353,6.46877751 C11.1687298,6.77870931 11.3748395,7.0680656 11.6726962,7.11509243 L15.6923676,7.93149564 C15.8265567,7.95268967 15.9532807,7.91531148 16.0594962,7.84583299 C16.0594962,7.84583299 16.1887487,7.77977688 16.310456,7.45557828 L17.7112435,3.3904061 C17.8461349,3.11012122 17.737672,2.76876946 17.4690129,2.62801882 Z" id="形状"></path>
            </g>
        </g>
    </g>
</svg>