<?xml version="1.0" encoding="UTF-8"?>
<svg width="18px" height="15px" viewBox="0 0 18 15" version="1.1" xmlns="http://www.w3.org/2000/svg" xmlns:xlink="http://www.w3.org/1999/xlink">
    <!-- Generator: Sketch 60 (88103) - https://sketch.com -->
    <title>xiangmuguanli</title>
    <desc>Created with Sketch.</desc>
    <g id="切图" stroke="none" stroke-width="1" fill="none" fill-rule="evenodd">
        <g id="图标" transform="translate(-28.000000, -233.000000)" fill-rule="nonzero">
            <g id="xiangmuguanli" transform="translate(28.000000, 233.000000)">
                <path d="M16.2178218,8.1980198 C16.8059406,8.1980198 17.2514851,8.36732673 17.3940594,8.67920792 C17.6970297,8.99108911 17.839604,9.48118812 17.839604,9.97128713 L17.839604,9.97128713 L17.839604,13.2059406 C17.839604,13.6960396 17.6970297,14.1683168 17.3940594,14.4980198 C17.0910891,14.8277228 16.6455446,14.9881188 16.0485149,14.9881188 L16.0485149,14.9881188 L1.94257426,14.9881188 C1.4970297,14.9881188 1.06039604,14.8277228 0.757425743,14.4980198 C0.302970297,14.1772277 0.16039604,13.6871287 0.16039604,13.0455446 L0.16039604,13.0455446 L0.16039604,9.98019802 C0.16039604,9.49009901 0.302970297,9.17821782 0.605940594,8.68811881 C0.908910891,8.35841584 1.35445545,8.1980198 1.95148515,8.1980198 L1.95148515,8.1980198 Z M10.0953382,11.0588315 L7.85714341,11.0586943 C7.65222772,11.0606436 7.63663366,11.0762376 7.51188119,11.2009901 C7.36930693,11.2009901 7.36930693,11.3613861 7.36930693,11.5039604 C7.36930693,11.6465347 7.51188119,11.8069307 7.51188119,11.949505 C7.65445545,12.0920792 7.81485149,12.0920792 7.95742574,12.0920792 L7.95742574,12.0920792 L10.1851485,12.0920792 C10.3455446,12.0920792 10.3455446,12.0920792 10.4881188,11.949505 C10.4881188,11.8069307 10.6306931,11.6465347 10.4792079,11.5039604 C10.4792079,11.3435644 10.4792079,11.3435644 10.3366337,11.2009901 C10.3366337,11.0584158 10.1762376,11.0584158 10.0336634,11.0584158 Z" id="形状结合" fill="#FFFFFF"></path>
                <path d="M16.119802,0.0445544554 C16.7257426,0.0445544554 17.1623762,0.204950495 17.4653465,0.534653465 C17.7683168,0.846534653 17.9108911,1.17623762 17.919802,1.65742574 L17.919802,1.65742574 L17.919802,4.9009901 C17.919802,5.39108911 17.7772277,5.86336634 17.4742574,6.19306931 C17.1712871,6.52277228 16.7257426,6.68316832 16.1287129,6.68316832 L16.1287129,6.68316832 L1.87128713,6.68316832 C1.26534653,6.68316832 0.828712871,6.52277228 0.525742574,6.19306931 C0.222772277,5.88118812 0.0801980198,5.39108911 0.0801980198,4.9009901 L0.0801980198,4.9009901 L0.0801980198,1.66633663 C0.0801980198,1.17623762 0.222772277,0.864356436 0.525742574,0.534653465 C0.828712871,0.204950495 1.27425743,0.0445544554 1.87128713,0.0445544554 L1.87128713,0.0445544554 Z M10.0158416,2.86930693 L7.93960396,2.86930693 C7.63663366,2.86930693 7.63663366,2.86930693 7.49405941,3.01188119 C7.35148515,3.01188119 7.35148515,3.17227723 7.35148515,3.31485149 C7.51188119,3.61782178 7.51188119,3.61782178 7.65445545,3.76039604 C7.65445545,3.9029703 7.81485149,3.9029703 7.95742574,3.9029703 L10.0425743,3.9029703 C10.3455446,3.9029703 10.4881188,3.75148515 10.6217822,3.31485149 C10.6217822,3.15445545 10.4613861,3.01188119 10.3188119,3.01188119 C10.3188119,2.86930693 10.1584158,2.86930693 10.0158416,2.86930693 L10.0158416,2.86930693 Z" id="形状结合" fill="#41C0FF"></path>
            </g>
        </g>
    </g>
</svg>