<?xml version="1.0" encoding="utf-8"?>
<!-- Generator: Adobe Illustrator 22.0.0, SVG Export Plug-In . SVG Version: 6.00 Build 0)  -->
<svg version="1.1" id="图层_1" xmlns="http://www.w3.org/2000/svg" xmlns:xlink="http://www.w3.org/1999/xlink" x="0px" y="0px"
	 viewBox="0 0 200 200" style="enable-background:new 0 0 200 200;" xml:space="preserve">
<path d="M182.5,119.2c-10.5-18.2-4.2-41.5,14.1-52.1l-19.6-34c-5.6,3.3-12.1,5.2-19.2,5.2c-21.1,0-38-17.2-38-38.3H80.3
	c0,6.5-1.5,13.2-5.1,19.2C64.8,37.3,41.4,43.5,23.2,33L3.5,67.1c5.6,3.2,10.6,7.9,14,14c10.5,18.1,4.2,41.4-14,52l19.6,34
	c5.6-3.3,12.1-5.2,19.1-5.2c20.9,0,37.9,17.1,38,38.1h39.3c0-6.5,1.6-13.1,5.1-18.9c10.5-18.1,33.8-24.4,52-13.9l19.6-34
	C190.7,129.9,185.9,125.2,182.5,119.2L182.5,119.2z M100,140.5c-22.4,0-40.5-18.1-40.5-40.5S77.6,59.5,100,59.5s40.5,18.1,40.5,40.5
	S122.3,140.5,100,140.5z"/>
</svg>
