<?xml version="1.0" encoding="UTF-8"?>
<svg width="16px" height="18px" viewBox="0 0 16 18" version="1.1" xmlns="http://www.w3.org/2000/svg" xmlns:xlink="http://www.w3.org/1999/xlink">
    <!-- Generator: Sketch 60 (88103) - https://sketch.com -->
    <title>yonghu-2</title>
    <desc>Created with Sketch.</desc>
    <g id="切图" stroke="none" stroke-width="1" fill="none" fill-rule="evenodd">
        <g id="图标" transform="translate(-28.000000, -389.000000)" fill-rule="nonzero">
            <g id="yonghu-2" transform="translate(28.000000, 389.000000)">
                <path d="M3.042,4.518 C3.042,6.993 5.076,8.991 7.587,8.991 C10.098,8.991 12.132,6.993 12.132,4.518 C12.132,2.043 10.107,0.036 7.596,0.036 C5.085,0.036 3.042,2.043 3.042,4.518 Z" id="路径" fill="#41C0FF"></path>
                <path d="M9.693,10.485 L5.895,10.485 C2.682,10.485 0.072,13.068 0.027,16.263 L0.027,16.641 C0.027,17.946 2.646,17.946 5.895,17.946 L9.684,17.946 C12.942,17.946 15.552,17.946 15.552,16.641 L15.552,16.263 C15.498,13.068 12.888,10.485 9.693,10.485 Z" id="路径" fill="#FFFFFF"></path>
            </g>
        </g>
    </g>
</svg>